:FULLY-SPECIFIED
:FORCE-ALL-JOINTS-BE-3DOF
:DEGREES
408
root 7.18138 13.7899 -34.2523 158.903 75.2249 152.733
lfemur 16.4103 -2.8108 -10.015
ltibia 27.6456 -0 0
lfoot -23.137 33.0982 -5.26348e-05
ltoes -26.3992 0 0
rfemur -66.4569 -15.5445 8.51299
rtibia 79.2402 -0 0
rfoot -13.8651 12.9535 0.000242745
rtoes 7.78209 -0 0
lowerback 8.43049 4.88028 -11.7665
upperback -2.54719 5.1499 -1.19047
thorax -8.45079 3.0811 4.44475
lowerneck 0.565921 -11.6309 -11.3592
upperneck 3.32619 -15.816 9.2652
head 2.53358 -7.9077 4.01844
lclavicle -5.02428e-14 7.55382e-15 0
lhumerus -70.1293 -19.9689 106.449
lradius 100.215 0 0
lwrist 51.2828 0 0
lhand -9.90215 42.7777 0
lfingers 7.12502 0 0
lthumb 16.0779 72.1306 0
rclavicle -5.02428e-14 7.55382e-15 0
rhumerus 49.2803 -3.96409 -60.0157
rradius 19.9242 0 0
rwrist 18.6728 0 0
rhand -21.7192 -34.0765 0
rfingers 7.12502 0 0
rthumb 4.67989 -64.0049 0
409
root 7.18307 13.789 -34.2546 159.162 75.2329 152.989
lfemur 15.953 -2.86321 -9.89835
ltibia 28.4479 -0 0
lfoot -23.1358 33.0343 -6.7481e-05
ltoes -26.063 0 0
rfemur -66.4527 -15.5355 8.54355
rtibia 79.279 0 0
rfoot -13.8984 12.9468 0.000231186
rtoes 7.39717 -0 0
lowerback 8.43343 4.88416 -11.6738
upperback -2.55358 5.16431 -1.1933
thorax -8.45194 3.0835 4.38784
lowerneck 0.552846 -11.6394 -11.3478
upperneck 3.28713 -15.8252 9.27497
head 2.52485 -7.91174 4.01944
lclavicle -4.37326e-15 1.05356e-14 0
lhumerus -70.1504 -19.9786 106.42
lradius 100.238 0 0
lwrist 51.251 0 0
lhand -9.79916 42.8152 0
lfingers 7.12502 0 0
lthumb 16.177 72.1601 0
rclavicle -4.37326e-15 1.05356e-14 0
rhumerus 49.2317 -3.91916 -59.8341
rradius 19.9709 0 0
rwrist 18.5472 0 0
rhand -21.7281 -33.3208 0
rfingers 7.12502 0 0
rthumb 4.67128 -63.2493 0
410
root 7.18525 13.7872 -34.2555 159.247 75.2199 153.057
lfemur 15.4957 -2.91469 -9.7813
ltibia 29.2501 -0 0
lfoot -23.1345 32.9705 -8.09777e-05
ltoes -25.7269 0 0
rfemur -66.4485 -15.5265 8.57411
rtibia 79.1237 -0 0
rfoot -13.9316 12.9402 0.000215773
rtoes 7.01225 -0 0
lowerback 8.41829 4.88683 -11.6789
upperback -2.56099 5.1696 -1.18184
thorax -8.454 3.08704 4.40263
lowerneck 0.55933 -11.6358 -11.376
upperneck 3.24848 -15.8198 9.28579
head 2.51478 -7.90954 4.02848
lclavicle 4.09372e-15 -5.26779e-15 0
lhumerus -70.1842 -19.9654 106.427
lradius 100.267 0 0
lwrist 51.2266 0 0
lhand -9.77946 42.9078 0
lfingers 7.12502 0 0
lthumb 16.196 72.2512 0
rclavicle 4.09372e-15 -5.26779e-15 0
rhumerus 49.2941 -4.01079 -59.9346
rradius 19.8956 0 0
rwrist 18.7378 0 0
rhand -21.7724 -32.606 0
rfingers 7.12502 0 0
rthumb 4.62851 -62.5355 0
411
root 7.1863 13.7847 -34.2571 159.297 75.1858 153.078
lfemur 15.0382 -2.96524 -9.66383
ltibia 30.0524 -0 0
lfoot -23.1333 32.9066 -9.31249e-05
ltoes -25.3907 0 0
rfemur -66.4443 -15.5174 8.60467
rtibia 78.9684 -0 0
rfoot -13.9649 12.9335 0.000196508
rtoes 6.62733 -0 0
lowerback 8.40914 4.89058 -11.6943
upperback -2.57162 5.17394 -1.17575
thorax -8.46346 3.09095 4.41678
lowerneck 0.553975 -11.6349 -11.3675
upperneck 3.2208 -15.8159 9.26617
head 2.50468 -7.9078 4.02246
lclavicle -4.1869e-14 -3.57812e-15 0
lhumerus -70.2204 -19.9544 106.459
lradius 100.279 0 0
lwrist 51.0973 0 0
lhand -9.84827 42.9166 0
lfingers 7.12502 0 0
lthumb 16.1298 72.2654 0
rclavicle -4.1869e-14 -3.57812e-15 0
rhumerus 49.2299 -3.82067 -59.519
rradius 19.9761 0 0
rwrist 18.3642 0 0
rhand -21.6774 -33.1399 0
rfingers 7.12502 0 0
rthumb 4.72027 -63.0674 0
412
root 7.18724 13.784 -34.2582 159.48 75.1906 153.212
lfemur 14.5806 -3.01484 -9.54596
ltibia 30.8547 -0 0
lfoot -23.1321 32.8427 -0.000103923
ltoes -25.0545 0 0
rfemur -66.4401 -15.5084 8.63523
rtibia 78.813 -0 0
rfoot -13.9981 12.9269 0.000173389
rtoes 6.24241 -0 0
lowerback 8.37509 4.887 -11.6561
upperback -2.58456 5.17754 -1.17495
thorax -8.45461 3.09105 4.39804
lowerneck 0.537285 -11.6305 -11.3368
upperneck 3.19467 -15.8066 9.24884
head 2.49476 -7.90268 4.01368
lclavicle -8.48376e-14 2.55438e-14 0
lhumerus -70.2567 -19.9651 106.451
lradius 100.297 0 0
lwrist 50.9928 0 0
lhand -9.87399 42.9081 0
lfingers 7.12502 0 0
lthumb 16.105 72.2589 0
rclavicle -8.48376e-14 2.55438e-14 0
rhumerus 49.2791 -3.86086 -59.5609
rradius 19.9317 0 0
rwrist 18.4457 0 0
rhand -21.7407 -32.7508 0
rfingers 7.12502 0 0
rthumb 4.65915 -62.6796 0
413
root 7.18822 13.7838 -34.26 159.553 75.156 153.239
lfemur 14.1228 -3.06351 -9.42769
ltibia 31.657 -0 0
lfoot -23.1309 32.7788 -0.000113371
ltoes -24.7184 0 0
rfemur -66.4359 -15.4994 8.66578
rtibia 78.6577 -0 0
rfoot -14.0314 12.9203 0.000146417
rtoes 5.85749 -0 0
lowerback 8.33047 4.87145 -11.599
upperback -2.58068 5.16826 -1.2068
thorax -8.41337 3.08127 4.33826
lowerneck 0.518421 -11.6213 -11.3049
upperneck 3.16499 -15.7911 9.24182
head 2.48428 -7.89433 4.00813
lclavicle -6.67668e-14 2.0773e-14 0
lhumerus -70.2557 -19.9931 106.424
lradius 100.296 0 0
lwrist 50.9085 0 0
lhand -9.95973 42.892 0
lfingers 7.12502 0 0
lthumb 16.0224 72.2494 0
rclavicle -6.67668e-14 2.0773e-14 0
rhumerus 49.3711 -4.03314 -59.7823
rradius 19.836 0 0
rwrist 18.6368 0 0
rhand -21.6884 -33.1292 0
rfingers 7.12502 0 0
rthumb 4.70962 -63.0569 0
414
root 7.1889 13.7838 -34.2613 159.808 75.1579 153.448
lfemur 13.665 -3.11122 -9.30902
ltibia 32.4592 -0 0
lfoot -23.1297 32.7149 -0.000121469
ltoes -24.3822 0 0
rfemur -66.4317 -15.4903 8.69634
rtibia 78.5024 -0 0
rfoot -14.0646 12.9136 0.000115592
rtoes 5.47258 -0 0
lowerback 8.28851 4.86633 -11.5533
upperback -2.58078 5.17351 -1.18193
thorax -8.38768 3.08112 4.34237
lowerneck 0.485227 -11.6158 -11.3047
upperneck 3.15811 -15.7788 9.21056
head 2.48369 -7.88795 3.99804
lclavicle 3.10725e-14 9.74045e-15 0
lhumerus -70.248 -19.9912 106.443
lradius 100.286 0 0
lwrist 50.8334 0 0
lhand -9.95115 42.9355 0
lfingers 7.12502 0 0
lthumb 16.0307 72.2923 0
rclavicle 3.10725e-14 9.74045e-15 0
rhumerus 49.5081 -4.24518 -60.0788
rradius 19.7146 0 0
rwrist 18.9414 0 0
rhand -21.6669 -33.561 0
rfingers 7.12502 0 0
rthumb 4.73043 -63.4882 0
415
root 7.18829 13.7839 -34.2632 159.956 75.1731 153.533
lfemur 13.207 -3.15799 -9.18998
ltibia 33.2615 -0 0
lfoot -23.1285 32.651 -0.000128218
ltoes -24.0461 0 0
rfemur -66.4275 -15.4813 8.7269
rtibia 78.347 -0 0
rfoot -14.0979 12.907 8.09145e-05
rtoes 5.08766 -0 0
lowerback 8.24406 4.85768 -11.5309
upperback -2.58858 5.17112 -1.16296
thorax -8.36961 3.079 4.35404
lowerneck 0.465853 -11.594 -11.3035
upperneck 3.13413 -15.7471 9.22305
head 2.47735 -7.87156 4.00329
lclavicle -2.22204e-14 7.55382e-15 0
lhumerus -70.2372 -19.9476 106.456
lradius 100.253 0 0
lwrist 50.777 0 0
lhand -9.96014 42.9066 0
lfingers 7.12502 0 0
lthumb 16.022 72.2641 0
rclavicle -2.22204e-14 7.55382e-15 0
rhumerus 49.626 -4.37507 -60.2703
rradius 19.6258 0 0
rwrist 19.1561 0 0
rhand -21.6916 -32.9603 0
rfingers 7.12502 0 0
rthumb 4.70659 -62.888 0
